# xmcd
#
# Track frame offsets: 
#        150
#        7011
#        18468
#        24379
#        33326
#        39637
#        49732
#
# Disc length: 775 seconds
#
# Revision: 0
# Processed by: cddbd v1.5.1PL2 Copyright (c) Steve Scherf et al.
# Submitted via: ExactAudioCopy v0.95b2
#
DISCID=4e030507
DTITLE=Gustavo Santaolalla - Brokeback Mountain - Soundtrack - EDITION
DTITLE=KLAUS
DYEAR=2006
DGENRE=Country
TTITLE0=Opening
TTITLE1=Brokeback Mountain 1
TTITLE2=Snow
TTITLE3=Brokeback Mountain 2
TTITLE4=Riding Horses
TTITLE5=Brokeback Mountain 3
TTITLE6=The Wings
EXTD=
EXTT0=
EXTT1=
EXTT2=
EXTT3=
EXTT4=
EXTT5=
EXTT6=
PLAYORDER=
